<svg width="179" height="33" viewBox="0 0 179 33" fill="none" xmlns="http://www.w3.org/2000/svg">
<g id="Coinbase svg" clip-path="url(#clip0_2_8868)">
<path id="Vector" d="M36.5224 9.43379C30.0641 9.43379 25.0179 14.3739 25.0179 20.9872C25.0179 27.6006 29.9367 32.4984 36.5224 32.4984C43.1081 32.4984 48.1124 27.516 48.1124 20.9449C48.1124 14.4162 43.1937 9.43379 36.5224 9.43379ZM36.566 27.7323C32.8882 27.7323 30.1932 24.8541 30.1932 20.9888C30.1932 17.0797 32.8446 14.2031 36.5224 14.2031C40.2437 14.2031 42.9371 17.1236 42.9371 20.9888C42.9371 24.8541 40.2437 27.7323 36.566 27.7323ZM49.5228 14.4601H52.731V32.0707H57.8627V9.86308H49.5228V14.4601ZM12.103 14.2015C14.798 14.2015 16.9362 15.8764 17.748 18.3676H23.1799C22.1955 13.0421 17.8335 9.43379 12.1466 9.43379C5.68836 9.43379 0.642151 14.3739 0.642151 20.9888C0.642151 27.6038 5.56088 32.5 12.1466 32.5C17.706 32.5 22.1535 28.8917 23.1379 23.5223H17.748C16.9782 26.0135 14.84 27.7323 12.145 27.7323C8.42368 27.7323 5.81585 24.8541 5.81585 20.9888C5.81746 17.0797 8.38334 14.2015 12.103 14.2015ZM147.029 18.8408L143.266 18.283C141.47 18.0261 140.187 17.4244 140.187 16.0065C140.187 14.4601 141.855 13.6877 144.121 13.6877C146.601 13.6877 148.185 14.7609 148.527 16.522H153.487C152.931 12.0551 149.509 9.43541 144.25 9.43541C138.818 9.43541 135.226 12.2274 135.226 16.1788C135.226 19.9579 137.579 22.1499 142.325 22.8361L146.088 23.3938C147.928 23.6508 148.954 24.3825 148.954 25.7566C148.954 27.5176 147.158 28.2478 144.678 28.2478C141.641 28.2478 139.93 27.0022 139.674 25.1126H134.627C135.099 29.4511 138.476 32.5 144.634 32.5C150.237 32.5 153.957 29.9226 153.957 25.498C153.957 21.5466 151.264 19.4847 147.029 18.8408ZM55.2968 0.714645C53.4152 0.714645 52.0031 2.0887 52.0031 3.97823C52.0031 5.86775 53.4136 7.24181 55.2968 7.24181C57.1785 7.24181 58.5905 5.86775 58.5905 3.97823C58.5905 2.0887 57.1785 0.714645 55.2968 0.714645ZM130.608 17.4667C130.608 12.6567 127.7 9.43541 121.541 9.43541C115.726 9.43541 112.475 12.3998 111.833 16.9529H116.923C117.18 15.1918 118.548 13.7316 121.456 13.7316C124.065 13.7316 125.348 14.891 125.348 16.3089C125.348 18.1562 122.995 18.6278 120.087 18.9286C116.153 19.3579 111.278 20.7319 111.278 25.8867C111.278 29.882 114.23 32.4577 118.934 32.4577C122.611 32.4577 124.921 30.9113 126.076 28.4624C126.247 30.6528 127.872 32.0707 130.14 32.0707H133.133V27.4754H130.609V17.4667H130.608ZM125.561 23.0507C125.561 26.0151 122.995 28.2055 119.873 28.2055C117.948 28.2055 116.323 27.3892 116.323 25.672C116.323 23.4817 118.932 22.88 121.327 22.6231C123.636 22.4084 124.919 21.893 125.561 20.9043V23.0507ZM98.3195 9.43379C95.4535 9.43379 93.0587 10.6371 91.3481 12.6551V0.5H86.2164V32.0707H91.2626V29.1502C92.9732 31.2544 95.4116 32.5 98.3195 32.5C104.478 32.5 109.14 27.6038 109.14 20.9888C109.14 14.3739 104.392 9.43379 98.3195 9.43379ZM97.5498 27.7323C93.872 27.7323 91.1771 24.8541 91.1771 20.9888C91.1771 17.1236 93.914 14.2031 97.5917 14.2031C101.313 14.2031 103.921 17.0813 103.921 20.9888C103.921 24.8541 101.228 27.7323 97.5498 27.7323ZM73.9422 9.43379C70.6065 9.43379 68.4247 10.8078 67.1418 12.7413V9.86308H62.052V32.0691H67.1837V20.0002C67.1837 16.6065 69.322 14.2015 72.4865 14.2015C75.4381 14.2015 77.2762 16.3057 77.2762 19.3562V32.0707H82.4079V18.9709C82.4095 13.3852 79.5451 9.43379 73.9422 9.43379ZM178.42 20.2587C178.42 13.9023 173.801 9.43541 167.6 9.43541C161.014 9.43541 156.181 14.4178 156.181 20.9888C156.181 27.9046 161.356 32.5 167.685 32.5C173.032 32.5 177.223 29.321 178.291 24.8118H172.944C172.175 26.7875 170.293 27.9046 167.769 27.9046C164.475 27.9046 161.995 25.8428 161.44 22.2344H178.418V20.2587H178.42ZM161.74 18.5399C162.553 15.4471 164.863 13.9446 167.514 13.9446C170.422 13.9446 172.646 15.6195 173.159 18.5399H161.74Z" fill="#0052FF"/>
</g>
<defs>
<clipPath id="clip0_2_8868">
<rect width="177.778" height="32" fill="white" transform="translate(0.642151 0.5)"/>
</clipPath>
</defs>
</svg>
