<svg width="184" height="37" viewBox="0 0 184 37" fill="none" xmlns="http://www.w3.org/2000/svg">
<g id="Dropbox svg" clip-path="url(#clip0_2_8870)">
<path id="Vector" d="M21.6538 7.26486L11.0369 14.0297L21.6538 20.7946L11.0369 27.5594L0.419922 20.758L11.0369 13.9931L0.419922 7.26486L11.0369 0.5L21.6538 7.26486ZM10.982 29.7351L21.5989 22.9703L32.2159 29.7351L21.5989 36.5L10.982 29.7351ZM21.6538 20.758L32.2708 13.9931L21.6538 7.26486L32.2159 0.5L42.8328 7.26486L32.2159 14.0297L42.8328 20.7946L32.2159 27.5594L21.6538 20.758Z" fill="#0061FF"/>
<path id="Vector_2" d="M51.1621 7.26492H59.7472C65.2204 7.26492 69.7418 10.4279 69.7418 17.6499V19.1674C69.7418 26.4442 65.5133 29.7169 59.9119 29.7169H51.1621V7.26492ZM55.958 11.3421V25.6214H59.6374C62.7492 25.6214 64.836 23.592 64.836 19.076V17.8876C64.836 13.3716 62.6394 11.3421 59.4726 11.3421H55.958ZM72.2862 11.5615H76.1302L76.7526 15.785C77.4848 12.9145 79.3519 11.3787 82.7384 11.3787H83.9282V16.2238H81.9513C78.0523 16.2238 77.1004 17.5767 77.1004 21.4163V29.7718H72.3594V11.5615H72.2862ZM84.8801 21.0323V20.5204C84.8801 14.432 88.7791 11.1044 94.0875 11.1044C99.5058 11.1044 103.295 14.432 103.295 20.5204V21.0323C103.295 27.011 99.6157 30.2289 94.0875 30.2289C88.2116 30.174 84.8801 27.0293 84.8801 21.0323ZM98.4441 20.9775V20.5204C98.4441 17.1379 96.7418 15.1085 94.0326 15.1085C91.3784 15.1085 89.6211 16.9734 89.6211 20.5204V20.9775C89.6211 24.2502 91.3235 26.1151 94.0326 26.1151C96.7418 26.0602 98.4441 24.2502 98.4441 20.9775ZM105.784 11.5615H109.738L110.196 14.9988C111.148 12.6951 113.18 11.1044 116.182 11.1044C120.813 11.1044 123.87 14.432 123.87 20.5935V21.1054C123.87 27.0841 120.483 30.2471 116.182 30.2471C113.308 30.2471 111.331 28.949 110.361 26.8647V36.0613H105.73L105.784 11.5615ZM119.056 20.9775V20.5752C119.056 16.9551 117.189 15.1633 114.699 15.1633C112.045 15.1633 110.288 17.1928 110.288 20.5752V20.9226C110.288 24.1405 111.99 26.1699 114.644 26.1699C117.372 26.1151 119.056 24.3782 119.056 20.9775ZM130.881 26.4076L130.478 29.7352H126.414V5.47314H131.045V14.7794C132.071 12.4025 134.102 11.1044 136.976 11.1044C141.333 11.1593 144.555 14.1578 144.555 20.1913V20.7581C144.555 26.7916 141.498 30.2471 136.867 30.2471C133.81 30.174 131.833 28.7662 130.881 26.4076ZM139.686 20.7581V20.301C139.686 16.9734 137.873 15.1085 135.329 15.1085C132.73 15.1085 130.917 17.1928 130.917 20.3558V20.7581C130.917 24.1405 132.675 26.1151 135.274 26.1151C138.056 26.1151 139.686 24.3782 139.686 20.7581ZM146.587 21.0323V20.5204C146.587 14.432 150.485 11.1044 155.794 11.1044C161.212 11.1044 165.001 14.432 165.001 20.5204V21.0323C165.001 27.011 161.267 30.2289 155.794 30.2289C149.918 30.174 146.587 27.0293 146.587 21.0323ZM160.187 20.9775V20.5204C160.187 17.1379 158.485 15.1085 155.776 15.1085C153.121 15.1085 151.364 16.9734 151.364 20.5204V20.9775C151.364 24.2502 153.067 26.1151 155.776 26.1151C158.503 26.0602 160.187 24.2502 160.187 20.9775ZM171.207 20.301L164.818 11.5615H170.292L173.971 17.0282L177.705 11.5615H183.123L176.643 20.2461L183.471 29.7352H178.108L173.934 23.7017L169.871 29.7352H164.269L171.207 20.301Z" fill="black"/>
</g>
<defs>
<clipPath id="clip0_2_8870">
<rect width="183.051" height="36" fill="white" transform="translate(0.419922 0.5)"/>
</clipPath>
</defs>
</svg>
