<svg width="175" height="41" viewBox="0 0 175 41" fill="none" xmlns="http://www.w3.org/2000/svg">
<g id="Intercom svg" clip-path="url(#clip0_2_8873)">
<path id="Vector" d="M60.5029 14.3648C60.5029 13.5325 59.8609 12.8497 58.9623 12.8497C58.0637 12.8497 57.4217 13.5325 57.4217 14.3648V26.6563C57.4217 27.4886 58.0637 28.1715 58.9623 28.1715C59.8823 28.1715 60.5029 27.4886 60.5029 26.6563V14.3648Z" fill="black"/>
<path id="Vector_2" d="M75.6743 12.8496C74.7756 12.8496 74.155 13.5325 74.155 14.3647V19.6143L74.2406 24.309L72.3791 19.9129L69.9398 14.9195C69.1909 13.3617 68.3352 12.8496 67.1154 12.8496C65.3182 12.8496 64.5264 13.9806 64.5264 15.6024V26.6562C64.5264 27.4886 65.1469 28.1715 66.0457 28.1715C66.9443 28.1715 67.5648 27.4886 67.5648 26.6562L67.5434 21.4709L67.4792 16.1572L69.4691 21.0226L71.9297 26.1014C72.7001 27.7232 73.5132 28.1928 74.7541 28.1928C76.3589 28.1928 77.1933 27.2111 77.1933 25.3973V14.3647C77.1933 13.5325 76.5729 12.8496 75.6743 12.8496Z" fill="black"/>
<path id="Vector_3" d="M88.554 15.9866L92.0416 16.072C92.8547 16.0933 93.4967 15.4745 93.4967 14.5782C93.4967 13.6819 92.8547 13.0631 92.0416 13.0631L81.9422 13.0417C81.1507 13.0417 80.4874 13.6606 80.4874 14.5569C80.4874 15.4531 81.1507 16.072 81.9422 16.0506L85.4514 15.9866V26.6563C85.4514 27.4887 86.0932 28.1716 86.992 28.1716C87.912 28.1716 88.554 27.4887 88.554 26.6563V15.9866Z" fill="black"/>
<path id="Vector_4" d="M98.8928 27.9793H106.403C107.195 27.9793 107.837 27.3818 107.837 26.5495C107.837 25.696 107.195 25.0984 106.403 25.0984L99.877 25.1198V21.556H105.526C106.296 21.556 106.917 20.9798 106.917 20.1904C106.917 19.3794 106.296 18.8032 105.526 18.8032L99.877 18.8459V15.9011H106.403C107.195 15.9011 107.837 15.3036 107.837 14.45C107.837 13.5964 107.195 13.0203 106.403 13.0203L98.9142 13.0416C97.5447 13.0416 96.7745 13.8098 96.7745 15.1756V25.8454C96.7745 27.211 97.5447 27.9793 98.8928 27.9793Z" fill="black"/>
<path id="Vector_5" d="M120.07 21.8976C122.102 21.3642 123.301 19.7851 123.301 17.6937C123.301 15.3677 121.782 13.0417 118.144 13.0417H113.437C112.067 13.0417 111.297 13.8099 111.297 15.1756V26.6563C111.297 27.4886 111.939 28.1715 112.881 28.1715C113.801 28.1715 114.464 27.4886 114.464 26.6563L114.442 22.6444H117.032L119.663 27.3819C120.091 28.1075 120.99 28.4061 121.824 27.9794C122.659 27.5313 122.894 26.6349 122.445 25.9095L120.07 21.8976ZM114.442 15.8798H118.165C119.428 15.8798 120.22 16.6694 120.22 17.8431C120.22 18.9954 119.471 19.8491 118.208 19.8491H114.442V15.8798Z" fill="black"/>
<path id="Vector_6" d="M132.751 28.2568C135.875 28.2568 137.886 26.8485 138.571 24.5651C138.935 23.2633 138.164 22.3245 137.009 22.3245C136.303 22.3245 135.832 22.6872 135.554 23.4768C135.126 24.6719 134.077 25.4188 132.58 25.4188C130.205 25.4188 129.178 23.8182 129.178 20.4892C129.178 17.2243 130.226 15.6665 132.58 15.6665C134.056 15.6665 134.912 16.2854 135.447 17.7151C135.746 18.5261 136.239 18.8888 136.966 18.8888C138.079 18.8888 138.892 17.9925 138.549 16.7549C137.865 14.2368 135.875 12.8284 132.665 12.8284C128.258 12.8284 126.011 15.5172 126.011 20.4892C126.011 25.504 128.258 28.2568 132.751 28.2568Z" fill="black"/>
<path id="Vector_7" d="M147.964 28.2142C152.5 28.2142 154.746 25.4399 154.746 20.4892C154.746 15.4958 152.436 12.743 147.964 12.743C143.47 12.743 141.224 15.5384 141.202 20.4892C141.202 25.4613 143.492 28.2142 147.964 28.2142ZM147.964 25.3547C145.439 25.3547 144.348 23.7543 144.348 20.4892C144.348 17.1816 145.46 15.5811 147.942 15.5811C150.446 15.5811 151.623 17.1816 151.601 20.4892C151.601 23.7754 150.489 25.3547 147.964 25.3547Z" fill="black"/>
<path id="Vector_8" d="M174.665 15.5171C174.665 13.8313 173.617 12.8283 171.99 12.8283C170.664 12.8283 169.658 13.5539 169.166 15.2183L167.519 20.5745L166.427 24.437L165.379 20.5745L163.624 15.2183C163.132 13.6605 162.276 12.8283 160.778 12.8283C159.131 12.8283 158.104 13.8099 158.104 15.5171V26.6563C158.104 27.4886 158.703 28.1715 159.58 28.1715C160.457 28.1715 161.057 27.4886 161.057 26.6563L161.035 21.2788L160.885 15.5171L162.576 21.4069L164.373 26.6136C164.758 27.7659 165.486 28.1502 166.427 28.1502C167.305 28.1502 168.011 27.83 168.374 26.6563L170.086 21.4069L171.905 15.4744L171.734 21.2788V26.6563C171.734 27.4886 172.354 28.1715 173.21 28.1715C174.087 28.1715 174.686 27.4886 174.686 26.6563L174.665 15.5171Z" fill="black"/>
<path id="Vector_9" d="M35.1052 22.5056C35.1052 22.8614 34.9651 23.2024 34.7156 23.4538C34.4661 23.7052 34.1277 23.8466 33.7748 23.8466C33.4219 23.8466 33.0835 23.7052 32.834 23.4538C32.5845 23.2024 32.4443 22.8614 32.4443 22.5056V10.5268C32.4443 10.1712 32.5845 9.83011 32.834 9.57866C33.0835 9.3272 33.4219 9.18593 33.7748 9.18593C34.1277 9.18593 34.4661 9.3272 34.7156 9.57866C34.9651 9.83011 35.1052 10.1712 35.1052 10.5268V22.5056ZM34.6433 30.8057C34.4675 30.9829 29.5197 35.1384 20.4488 35.1384C11.3779 35.1384 6.46306 31.0051 6.25417 30.8277C6.12252 30.7159 6.01407 30.5789 5.93506 30.4248C5.85604 30.2704 5.80799 30.1021 5.7937 29.9291C5.7794 29.7562 5.79911 29.5821 5.85172 29.4168C5.90431 29.2516 5.98877 29.0983 6.10023 28.966C6.32986 28.6983 6.65521 28.533 7.00536 28.5059C7.35551 28.4789 7.70204 28.5927 7.96939 28.822C8.04636 28.8775 12.4664 32.4899 20.4377 32.4899C28.4092 32.4899 32.8621 28.8553 32.9062 28.822C33.1766 28.5946 33.5242 28.4824 33.8752 28.5094C34.2264 28.5363 34.5532 28.7001 34.7863 28.966C35.0106 29.2299 35.1226 29.5723 35.0979 29.9187C35.0732 30.2652 34.9138 30.588 34.6544 30.8167L34.6433 30.8057ZM5.78138 10.5268C5.80126 10.17 5.96046 9.83573 6.22418 9.59695C6.48789 9.35815 6.83468 9.23429 7.18875 9.25242C7.51697 9.27121 7.82668 9.41181 8.05813 9.64713C8.2896 9.88245 8.42641 10.1958 8.44217 10.5268V22.4836C8.44217 22.8391 8.30201 23.1802 8.05252 23.4316C7.80301 23.6832 7.46462 23.8244 7.11178 23.8244C6.75893 23.8244 6.42054 23.6832 6.17104 23.4316C5.92155 23.1802 5.78138 22.8391 5.78138 22.4836V10.5268ZM12.4554 7.86725C12.4753 7.51051 12.6345 7.17621 12.8982 6.93743C13.1619 6.69863 13.5087 6.57477 13.8627 6.5929C14.191 6.61169 14.5007 6.7523 14.7321 6.98761C14.9636 7.22293 15.1004 7.53628 15.1162 7.86725V25.5974C15.1162 25.9531 14.976 26.2941 14.7265 26.5455C14.477 26.7969 14.1386 26.9381 13.7858 26.9381C13.4329 26.9381 13.0945 26.7969 12.845 26.5455C12.5955 26.2941 12.4554 25.9531 12.4554 25.5974V7.86725ZM19.1624 7.20237C19.1624 6.84676 19.3025 6.50571 19.552 6.25426C19.8016 6.0028 20.1399 5.86153 20.4927 5.86153C20.8456 5.86153 21.184 6.0028 21.4335 6.25426C21.683 6.50571 21.8231 6.84676 21.8231 7.20237V26.4839C21.8231 26.8395 21.683 27.1805 21.4335 27.4321C21.184 27.6835 20.8456 27.8247 20.4927 27.8247C20.1399 27.8247 19.8016 27.6835 19.552 27.4321C19.3025 27.1805 19.1624 26.8395 19.1624 26.4839V7.20237ZM25.7594 7.86725C25.7594 7.51165 25.8996 7.1706 26.1491 6.91913C26.3986 6.66768 26.737 6.52641 27.0897 6.52641C27.4426 6.52641 27.781 6.66768 28.0305 6.91913C28.28 7.1706 28.4202 7.51165 28.4202 7.86725V25.5974C28.4202 25.9531 28.28 26.2941 28.0305 26.5455C27.781 26.7969 27.4426 26.9381 27.0897 26.9381C26.737 26.9381 26.3986 26.7969 26.1491 26.5455C25.8996 26.2941 25.7594 25.9531 25.7594 25.5974V7.86725ZM35.468 0.553577H5.47351C4.81994 0.549199 4.17194 0.674789 3.56662 0.923156C2.96128 1.17152 2.41049 1.53779 1.94579 2.00099C1.4811 2.46418 1.11162 3.0152 0.858514 3.62252C0.605406 4.22982 0.473642 4.88147 0.470764 5.54018V35.4598C0.473642 36.1184 0.605406 36.7702 0.858514 37.3775C1.11162 37.9847 1.4811 38.5358 1.94579 38.999C2.41049 39.4621 2.96128 39.8285 3.56662 40.0768C4.17194 40.3252 4.81994 40.4507 5.47351 40.4463H35.468C36.1206 40.4507 36.7678 40.3256 37.3723 40.0778C37.977 39.8302 38.5273 39.4649 38.9918 39.0028C39.4564 38.5409 39.8261 37.9911 40.0798 37.385C40.3337 36.7791 40.4665 36.1286 40.4707 35.4709V5.54018C40.4679 4.88242 40.3365 4.23167 40.084 3.62509C39.8317 3.0185 39.4632 2.46798 38.9995 2.00492C38.536 1.54187 37.9866 1.17537 37.3825 0.926353C36.7785 0.67733 36.1316 0.550661 35.479 0.553577" fill="black"/>
</g>
<defs>
<clipPath id="clip0_2_8873">
<rect width="174.444" height="40" fill="white" transform="translate(0.470764 0.5)"/>
</clipPath>
</defs>
</svg>
