<svg width="20" height="20" viewBox="0 0 20 20" fill="none" xmlns="http://www.w3.org/2000/svg">
<g id="monitor-01">
<path id="Icon" d="M6.66669 17.5H13.3334M10 14.1667V17.5M5.66669 14.1667H14.3334C15.7335 14.1667 16.4336 14.1667 16.9683 13.8942C17.4387 13.6545 17.8212 13.272 18.0609 12.8016C18.3334 12.2669 18.3334 11.5668 18.3334 10.1667V6.5C18.3334 5.09987 18.3334 4.3998 18.0609 3.86502C17.8212 3.39462 17.4387 3.01217 16.9683 2.77248C16.4336 2.5 15.7335 2.5 14.3334 2.5H5.66669C4.26656 2.5 3.56649 2.5 3.03171 2.77248C2.56131 3.01217 2.17885 3.39462 1.93917 3.86502C1.66669 4.3998 1.66669 5.09987 1.66669 6.5V10.1667C1.66669 11.5668 1.66669 12.2669 1.93917 12.8016C2.17885 13.272 2.56131 13.6545 3.03171 13.8942C3.56649 14.1667 4.26656 14.1667 5.66669 14.1667Z" stroke="#175CD3" stroke-width="1.5" stroke-linecap="round" stroke-linejoin="round"/>
</g>
</svg>
