<svg width="20" height="20" viewBox="0 0 20 20" fill="none" xmlns="http://www.w3.org/2000/svg">
<g id="settings-01" clip-path="url(#clip0_2_8998)">
<g id="Icon">
<path d="M9.99996 12.5C11.3807 12.5 12.5 11.3807 12.5 9.99999C12.5 8.61928 11.3807 7.49999 9.99996 7.49999C8.61925 7.49999 7.49996 8.61928 7.49996 9.99999C7.49996 11.3807 8.61925 12.5 9.99996 12.5Z" stroke="#175CD3" stroke-width="1.5" stroke-linecap="round" stroke-linejoin="round"/>
<path d="M15.606 12.2727C15.5052 12.5012 15.4751 12.7547 15.5197 13.0004C15.5642 13.2462 15.6814 13.473 15.856 13.6515L15.9015 13.697C16.0423 13.8377 16.1541 14.0048 16.2304 14.1887C16.3066 14.3727 16.3458 14.5698 16.3458 14.7689C16.3458 14.968 16.3066 15.1652 16.2304 15.3491C16.1541 15.5331 16.0423 15.7002 15.9015 15.8409C15.7608 15.9818 15.5937 16.0935 15.4097 16.1698C15.2258 16.246 15.0286 16.2853 14.8295 16.2853C14.6304 16.2853 14.4332 16.246 14.2493 16.1698C14.0654 16.0935 13.8983 15.9818 13.7575 15.8409L13.7121 15.7954C13.5335 15.6208 13.3068 15.5036 13.061 15.4591C12.8153 15.4145 12.5618 15.4446 12.3333 15.5454C12.1092 15.6415 11.9181 15.8009 11.7835 16.0042C11.6489 16.2074 11.5767 16.4456 11.5757 16.6894V16.8182C11.5757 17.22 11.4161 17.6054 11.1319 17.8895C10.8478 18.1737 10.4624 18.3333 10.0606 18.3333C9.65872 18.3333 9.27334 18.1737 8.98919 17.8895C8.70505 17.6054 8.54541 17.22 8.54541 16.8182V16.75C8.53955 16.4992 8.45838 16.256 8.31247 16.052C8.16655 15.848 7.96264 15.6926 7.72723 15.6061C7.49874 15.5052 7.24527 15.4751 6.99951 15.5197C6.75376 15.5642 6.52699 15.6814 6.34844 15.8561L6.30299 15.9015C6.16227 16.0424 5.99517 16.1541 5.81123 16.2304C5.6273 16.3066 5.43013 16.3459 5.23102 16.3459C5.03191 16.3459 4.83474 16.3066 4.65081 16.2304C4.46687 16.1541 4.29977 16.0424 4.15905 15.9015C4.01818 15.7608 3.90642 15.5937 3.83017 15.4097C3.75392 15.2258 3.71468 15.0287 3.71468 14.8295C3.71468 14.6304 3.75392 14.4333 3.83017 14.2493C3.90642 14.0654 4.01818 13.8983 4.15905 13.7576L4.2045 13.7121C4.37915 13.5336 4.49631 13.3068 4.54087 13.061C4.58543 12.8153 4.55535 12.5618 4.4545 12.3333C4.35847 12.1093 4.19902 11.9182 3.99577 11.7836C3.79252 11.649 3.55434 11.5767 3.31057 11.5757H3.18178C2.77993 11.5757 2.39455 11.4161 2.1104 11.132C1.82626 10.8478 1.66663 10.4624 1.66663 10.0606C1.66663 9.65875 1.82626 9.27337 2.1104 8.98922C2.39455 8.70508 2.77993 8.54544 3.18178 8.54544H3.24996C3.50071 8.53958 3.7439 8.45841 3.94791 8.3125C4.15192 8.16658 4.30732 7.96267 4.3939 7.72726C4.49474 7.49877 4.52483 7.2453 4.48027 6.99954C4.43571 6.75379 4.31855 6.52702 4.1439 6.34847L4.09844 6.30302C3.95757 6.1623 3.84581 5.9952 3.76957 5.81126C3.69332 5.62733 3.65407 5.43016 3.65407 5.23105C3.65407 5.03194 3.69332 4.83477 3.76957 4.65084C3.84581 4.4669 3.95757 4.2998 4.09844 4.15908C4.23916 4.01821 4.40627 3.90645 4.5902 3.8302C4.77414 3.75395 4.9713 3.71471 5.17041 3.71471C5.36953 3.71471 5.56669 3.75395 5.75063 3.8302C5.93456 3.90645 6.10167 4.01821 6.24238 4.15908L6.28784 4.20454C6.46638 4.37918 6.69315 4.49634 6.93891 4.5409C7.18466 4.58546 7.43813 4.55538 7.66663 4.45454H7.72723C7.9513 4.3585 8.1424 4.19905 8.277 3.9958C8.4116 3.79255 8.48384 3.55437 8.48481 3.3106V3.18181C8.48481 2.77996 8.64444 2.39458 8.92859 2.11043C9.21273 1.82629 9.59812 1.66666 9.99996 1.66666C10.4018 1.66666 10.7872 1.82629 11.0713 2.11043C11.3555 2.39458 11.5151 2.77996 11.5151 3.18181V3.24999C11.5161 3.49377 11.5883 3.73194 11.7229 3.93519C11.8575 4.13844 12.0486 4.2979 12.2727 4.39393C12.5012 4.49477 12.7547 4.52486 13.0004 4.4803C13.2462 4.43574 13.4729 4.31858 13.6515 4.14393L13.6969 4.09847C13.8376 3.9576 14.0048 3.84585 14.1887 3.7696C14.3726 3.69335 14.5698 3.6541 14.7689 3.6541C14.968 3.6541 15.1652 3.69335 15.3491 3.7696C15.533 3.84585 15.7002 3.9576 15.8409 4.09847C15.9817 4.23919 16.0935 4.4063 16.1697 4.59023C16.246 4.77417 16.2852 4.97133 16.2852 5.17044C16.2852 5.36956 16.246 5.56672 16.1697 5.75066C16.0935 5.93459 15.9817 6.1017 15.8409 6.24241L15.7954 6.28787C15.6208 6.46641 15.5036 6.69318 15.459 6.93894C15.4145 7.18469 15.4446 7.43816 15.5454 7.66666V7.72726C15.6414 7.95133 15.8009 8.14243 16.0042 8.27703C16.2074 8.41163 16.4456 8.48387 16.6894 8.48484H16.8181C17.22 8.48484 17.6054 8.64447 17.8895 8.92862C18.1737 9.21276 18.3333 9.59815 18.3333 9.99999C18.3333 10.4018 18.1737 10.7872 17.8895 11.0714C17.6054 11.3555 17.22 11.5151 16.8181 11.5151H16.75C16.5062 11.5161 16.268 11.5883 16.0648 11.723C15.8615 11.8576 15.7021 12.0487 15.606 12.2727Z" stroke="#175CD3" stroke-width="1.5" stroke-linecap="round" stroke-linejoin="round"/>
</g>
</g>
<defs>
<clipPath id="clip0_2_8998">
<rect width="20" height="20" fill="white"/>
</clipPath>
</defs>
</svg>
