<svg width="24" height="25" viewBox="0 0 24 25" fill="none" xmlns="http://www.w3.org/2000/svg">
<g id="video-recorder">
<g id="Icon">
<path d="M22 9.43137C22 8.82555 22 8.52265 21.8802 8.38238C21.7763 8.26068 21.6203 8.19609 21.4608 8.20865C21.2769 8.22312 21.0627 8.43731 20.6343 8.86569L17 12.5L20.6343 16.1343C21.0627 16.5627 21.2769 16.7769 21.4608 16.7914C21.6203 16.8039 21.7763 16.7393 21.8802 16.6176C22 16.4774 22 16.1744 22 15.5686V9.43137Z" stroke="#175CD3" stroke-width="2" stroke-linecap="round" stroke-linejoin="round"/>
<path d="M2 10.3C2 8.61984 2 7.77976 2.32698 7.13803C2.6146 6.57354 3.07354 6.1146 3.63803 5.82698C4.27976 5.5 5.11984 5.5 6.8 5.5H12.2C13.8802 5.5 14.7202 5.5 15.362 5.82698C15.9265 6.1146 16.3854 6.57354 16.673 7.13803C17 7.77976 17 8.61984 17 10.3V14.7C17 16.3802 17 17.2202 16.673 17.862C16.3854 18.4265 15.9265 18.8854 15.362 19.173C14.7202 19.5 13.8802 19.5 12.2 19.5H6.8C5.11984 19.5 4.27976 19.5 3.63803 19.173C3.07354 18.8854 2.6146 18.4265 2.32698 17.862C2 17.2202 2 16.3802 2 14.7V10.3Z" stroke="#175CD3" stroke-width="2" stroke-linecap="round" stroke-linejoin="round"/>
</g>
</g>
</svg>
